<svg xmlns="http://www.w3.org/2000/svg" width="20.571" height="24" viewBox="0 0 20.571 24">
  <path id="Icon_metro-file-archive" data-name="Icon metro-file-archive" d="M11.142,7.346V5.632H9.428V7.346Zm1.714,1.714V7.346H11.142V9.061Zm-1.714,1.714V9.061H9.428v1.714Zm1.714,1.714V10.775H11.142v1.714Zm9.375-5.2a3.116,3.116,0,0,1,.643,1.018,3.091,3.091,0,0,1,.268,1.179V24.918A1.28,1.28,0,0,1,21.856,26.2h-18a1.28,1.28,0,0,1-1.286-1.286V3.489A1.28,1.28,0,0,1,3.856,2.2h12a3.092,3.092,0,0,1,1.179.268,3.116,3.116,0,0,1,1.018.643ZM16.285,4.025V9.061h5.036a1.463,1.463,0,0,0-.295-.549L16.834,4.32a1.463,1.463,0,0,0-.549-.295Zm5.143,20.464V10.775H15.856a1.28,1.28,0,0,1-1.286-1.286V3.918H12.856V5.632H11.142V3.918H4.285V24.489H21.428Zm-8.4-9.656,1.433,4.674a2.449,2.449,0,0,1,.107.7,2.218,2.218,0,0,1-.971,1.842,3.977,3.977,0,0,1-2.458.73,3.976,3.976,0,0,1-2.458-.73A2.218,2.218,0,0,1,7.714,20.2a2.449,2.449,0,0,1,.107-.7q.281-.844,1.607-5.3V12.489h1.714V14.2H12.2a.837.837,0,0,1,.522.174.853.853,0,0,1,.308.455Zm-1.888,6.228a2.656,2.656,0,0,0,1.212-.254q.5-.254.5-.6t-.5-.6a2.657,2.657,0,0,0-1.212-.254A2.657,2.657,0,0,0,9.93,19.6q-.5.254-.5.6t.5.6A2.656,2.656,0,0,0,11.142,21.061Z" transform="translate(-2.571 -2.203)" fill="#6f7ca7"/>
</svg>
